<svg width="171" height="36" xmlns="http://www.w3.org/2000/svg" fill="none">
 <defs>
  <linearGradient y2="1" x2="0.5" y1="0" x1="0.5" id="paint0_linear_120_1360">
   <stop stop-color="#877EFF"/>
   <stop stop-color="#685DFF" offset="0.46146"/>
   <stop stop-color="#3121FF" offset="1"/>
  </linearGradient>
 </defs>
 <g>
  <title>Layer 1</title>
  <path id="svg_1" fill="url(#paint0_linear_120_1360)" d="m27.8333,18c0,7.0877 -5.7456,12.8333 -12.8333,12.8333c-7.08766,0 -12.83334,-5.7456 -12.83334,-12.8333c0,-7.0877 5.74568,-12.83334 12.83334,-12.83334c7.0877,0 12.8333,5.74564 12.8333,12.83334zm2.1667,0c0,8.2843 -6.7157,15 -15,15c-8.28427,0 -15,-6.7157 -15,-15c0,-8.28427 6.71573,-15 15,-15c8.2843,0 15,6.71573 15,15zm-6.7241,-6.7241c0,0.857 -0.6947,1.5517 -1.5517,1.5517c-0.857,0 -1.5517,-0.6947 -1.5517,-1.5517c0,-0.857 0.6947,-1.55172 1.5517,-1.55172c0.857,0 1.5517,0.69472 1.5517,1.55172zm-12.788,7.9331c0.6677,2.4919 3.2291,3.9707 5.721,3.303c2.4919,-0.6677 3.9707,-3.2291 3.303,-5.721c-0.6677,-2.4919 -3.2291,-3.9707 -5.721,-3.303c-2.4919,0.6677 -3.97075,3.2291 -3.303,5.721zm-2.09287,0.5608c0.97741,3.6477 4.72687,5.8125 8.37457,4.8351c3.6478,-0.9775 5.8125,-4.7269 4.8351,-8.3747c-0.9774,-3.6477 -4.7268,-5.8125 -8.3746,-4.835c-3.64774,0.9774 -5.81248,4.7268 -4.83507,8.3746z" clip-rule="evenodd" fill-rule="evenodd"/>
  <text style="cursor: move;" xml:space="preserve" text-anchor="start" font-family="'Orbitron'" font-size="24" stroke-width="0" id="svg_7" y="26.25002" x="34" fill="#ffffff">DirBuzz</text>
 </g>
</svg>